PathFileType	3	(X/Y/Z)	D:\Jess\Healthy\Labelled\HA21\20251027\SRRun01.trc
DataRate	CameraRate	NumFrames	NumMarkers	Units	OrigDataRate	OrigDataStartFrame	OrigNumFrames
250.0	250.0	4	33	mm	250.0	37500	4001
Frame#	Time	C7			T10			CLAV			LSHO			RSHO			LASIS			RASIS			LPSIS			RPSIS			LILCR			RILCR			LGTR			LTHI			LLTHI			LLEP			LPSH			LLSH			LDSH			LLMAL			LTOE			L5TH			LHEE			RGTR			RTHI			RLTHI			RLEP			RPSH			RLSH			RDSH			RLMAL			RTOE			R5TH			RHEE			
		X1	Y1	Z1	X2	Y2	Z2	X3	Y3	Z3	X4	Y4	Z4	X5	Y5	Z5	X6	Y6	Z6	X7	Y7	Z7	X8	Y8	Z8	X9	Y9	Z9	X10	Y10	Z10	X11	Y11	Z11	X12	Y12	Z12	X13	Y13	Z13	X14	Y14	Z14	X15	Y15	Z15	X16	Y16	Z16	X17	Y17	Z17	X18	Y18	Z18	X19	Y19	Z19	X20	Y20	Z20	X21	Y21	Z21	X22	Y22	Z22	X23	Y23	Z23	X24	Y24	Z24	X25	Y25	Z25	X26	Y26	Z26	X27	Y27	Z27	X28	Y28	Z28	X29	Y29	Z29	X30	Y30	Z30	X31	Y31	Z31	X32	Y32	Z32	X33	Y33	Z33	

1501	149.996	777.1412448944147	1526.904386282336	-889.2971991697374	772.0820630650556	1301.901740360125	-855.007773753848	827.6031676110258	1469.378542236394	-1038.946090166711	649.2975442158714	1528.114915421098	-1006.891283543872	946.0549040766291	1519.098372050667	-944.1041761455612	670.6313584700034	1011.278091969016	-1016.076593848853	903.6411688150048	1032.541071677026	-1026.338261999037	770.5661718119187	1077.119540170718	-840.184729129467	802.5950770717163	1078.965229041776	-839.2739146300279	624.5358591321326	1107.825966618373	-990.4187169088329	954.5207964577598	1119.25329895132	-927.3321026655702	608.3095388614756	897.1985645814752	-904.3072736606968	684.4544894127495	709.2514190970085	-970.5062462980086	640.2826835029704	673.580214824471	-832.1282291135309	666.1418632559203	536.4542881018453	-779.3786117415638	719.2639927728014	435.3902748070672	-795.3549769199715	669.2129901511626	380.2793947319074	-674.7556066104809	727.6656197719622	286.5825177153538	-689.6813719870295	702.8027597704092	195.7427251105356	-569.5911792445136	722.1560966440979	64.43854794898526	-661.4219792602516	681.2431863611296	66.33477118477799	-599.8827822343335	759.9429638298246	208.8685471420176	-488.4751669994764	982.9436257888809	921.9071938379074	-978.2334330265101	892.1977500624671	826.1174938366868	-1139.091974472333	948.3974320721247	682.9741311644862	-1081.643175662727	927.4427382103452	588.2186021286112	-1108.956365877903	877.9062936334143	473.8508710943347	-1128.180538544291	936.3847594105046	432.6153690405058	-1018.796890620899	878.6822613796546	338.2878176614548	-1019.510861789943	904.1484200226482	256.3265461325622	-905.8284761758814	893.9417320868296	125.8301129979904	-1003.207589837514	931.8223014549861	127.6799704660097	-947.5112923983896	848.7149683215441	273.5529009444049	-828.1603300113248	
1502	150	777.4073081318155	1529.267885447692	-889.5109005912285	771.60761226068	1304.250739224611	-855.670355748664	828.403159628866	1471.949984371428	-1038.842690606863	650.3110333293556	1530.967597399567	-1007.575757875312	946.3554178867605	1521.340774143226	-943.7603325631866	670.7733075856224	1012.958943322434	-1017.49374571651	903.334679656985	1035.876713442649	-1027.472648212644	769.9497278880126	1080.203023881245	-841.8036464428568	801.9340565274949	1082.15627404065	-840.6931982006984	624.9322574001926	1110.527219309717	-993.1977309110634	954.6014938780517	1123.083944089251	-928.2607237548982	608.5371515469618	899.77238791993	-904.4863283941197	685.2566710840708	710.9965917772749	-968.4347320119429	640.4512008600369	677.1095227203012	-829.4189512613315	666.3619878257417	540.732467584525	-774.6604765374242	719.5251080590585	439.5708766611176	-790.1526772637129	669.0857803295636	385.0293866703537	-669.1799308392557	727.0614743234288	290.8635478117262	-683.9905951294947	702.0863251133334	200.6234200580792	-563.8027892738444	721.580408545168	66.17114442064427	-652.3117309900781	680.9061044924094	69.89603811798872	-590.8122702257999	758.9791653041469	216.2239373066913	-483.4766030326771	982.9118894677656	925.8577094250692	-979.2549269425843	892.6822354699005	829.4881379564911	-1140.183696583921	947.7502119650082	685.5653302736313	-1081.340732167178	927.307390759353	589.7833840344899	-1108.667707126877	878.070557552863	475.4422774436448	-1131.668000000519	936.1592049933568	429.6940997372594	-1024.004336018973	878.3390060914636	335.4901593414406	-1028.839688810933	903.2354133089384	248.6772490285788	-918.7032296788794	893.2260549977424	122.4933577142609	-1021.46321856038	930.8171443794213	121.8783503551123	-965.5903151409727	847.4739592289233	262.668163062864	-840.75290850317	
1503	150.004	777.6883451224365	1531.481221754304	-889.7350623087216	771.1721934840654	1306.491311701444	-856.3085393862553	829.1545989983136	1474.34931466531	-1038.78030154293	651.2864963034758	1533.653459703803	-1008.222496781123	946.6596386525554	1523.419509578633	-943.4984692133644	670.9458248361739	1014.56079093576	-1018.870722339363	903.048062677741	1039.042373120572	-1028.601198697187	769.3634923131406	1083.233753807784	-843.4046904626534	801.2981030947689	1085.274202258821	-842.0932698083299	625.3557549879861	1113.079322579795	-995.8816601998562	954.7025245649083	1126.791832559214	-929.2235759267826	608.7199271499582	902.2844162649902	-904.7354667246221	686.0116554643068	712.7142551937202	-966.5580913429797	640.6113934981065	680.4997904771391	-826.9870016341682	666.5863660925542	544.8365710014141	-770.3851791238548	719.786104965992	443.5832313920054	-785.3314963568918	668.9829855030576	389.7020519218726	-663.9460763988568	726.53169456621	295.1059259939525	-678.5047900734205	701.4565172820935	205.6325198273208	-558.1163476373517	721.011946460099	68.17975363574607	-643.3467947232098	680.5907864024499	73.74488159794029	-581.8859741301362	758.1387472426578	223.6273555414445	-478.6153736940902	982.8913807087042	929.5116163392756	-980.1388027552778	893.2276502314749	832.5180653615826	-1141.110702991357	947.0858928905679	687.8300768604856	-1080.677369959245	927.2016970743994	591.000142755273	-1108.062688116171	878.2430248549838	476.8564330300362	-1134.870654671987	935.977805843011	426.6497484492617	-1029.158811769453	878.0290487659897	332.7620132135025	-1038.117816440158	902.3699352422971	241.2217260695617	-931.7882984764223	892.5559164736025	119.6393974891989	-1039.790871659082	929.8599989811964	116.5324237503959	-983.8630634443934	846.2775449714503	251.9277187358867	-853.6843710656533	
1504	150.008	777.9840113494841	1533.53769556062	-889.9704841581319	770.7804552550924	1308.617532053041	-856.9202998086528	829.8598345583155	1476.570136072187	-1038.762106155189	652.2188646913129	1536.163478585604	-1008.832598711216	946.9709886243511	1525.330419578685	-943.3160579532522	671.1473312045473	1016.086103692312	-1020.203164674185	902.79067889856	1042.021847599781	-1029.715014679382	768.8082928128684	1086.19927211502	-844.9765021742337	800.6889122506848	1088.304849600043	-843.4634579759268	625.7985007774042	1115.480666523992	-998.4495007209642	954.8207038450602	1130.35160373524	-930.2109837072893	608.8544899159435	904.7236870533476	-905.0604396412015	686.7165733870772	714.3940564907556	-964.8895955913038	640.7643310695776	683.7298250400373	-824.8420688089153	666.8129903856036	548.7400147655185	-766.562619370211	720.0367652324505	447.3951456785536	-780.8875104652509	668.904566973313	394.2849687313718	-659.0430613057385	726.0780356379479	299.2976228157734	-673.2028836711526	700.9196155841338	210.7671120236845	-552.4975317740845	720.4539348255166	70.47863693698871	-634.5067830738823	680.3022947214669	77.87620452442238	-573.0833078450912	757.4364140727138	231.0605509936575	-473.8517840936412	982.8837429120705	932.8447136159958	-980.8760701252467	893.8291509684092	835.1731989593683	-1141.851067441393	946.4207420710615	689.75786896644	-1079.656048521985	927.1299332033626	591.8650395564532	-1107.149171990683	878.4187404881307	478.0963027190366	-1137.788033120703	935.8412338064144	423.505129580676	-1034.256287865267	877.753133936942	330.1254831701088	-1047.325412029283	901.5604586200498	233.9996935060206	-945.0551799657893	891.9223013141417	117.2897202816646	-1058.142752180839	928.9474203059023	111.6702237688508	-1002.285344473526	845.1437424009512	241.3846555236405	-866.9199305130527	
